<mxfile host="app.diagrams.net" modified="2024-05-22T13:56:21.049Z" agent="Mozilla/5.0 (X11; Ubuntu; Linux x86_64; rv:126.0) Gecko/20100101 Firefox/126.0" version="24.4.0" etag="73vAIJNYUylHpbHxjCuj" type="github">
  <diagram name="Страница — 1" id="-VJF_a1aQ_Zd17jKSDmL">
    <mxGraphModel>
      <root>
        <mxCell id="0" />
        <mxCell id="1" parent="0" />
      </root>
    </mxGraphModel>
  </diagram>
</mxfile>
